<?xml version="1.0" encoding="UTF-8" standalone="no"?>
<!-- Created with Inkscape (http://www.inkscape.org/) -->

<svg
   xmlns:dc="http://purl.org/dc/elements/1.1/"
   xmlns:cc="http://creativecommons.org/ns#"
   xmlns:rdf="http://www.w3.org/1999/02/22-rdf-syntax-ns#"
   xmlns:svg="http://www.w3.org/2000/svg"
   xmlns="http://www.w3.org/2000/svg"
   xmlns:sodipodi="http://sodipodi.sourceforge.net/DTD/sodipodi-0.dtd"
   xmlns:inkscape="http://www.inkscape.org/namespaces/inkscape"
   width="210mm"
   height="297mm"
   viewBox="0 0 744.09448819 1052.3622047"
   id="svg2"
   version="1.1"
   inkscape:version="0.91 r13725"
   sodipodi:docname="fidel.svg">
  <defs
     id="defs4" />
  <sodipodi:namedview
     id="base"
     pagecolor="#ffffff"
     bordercolor="#666666"
     borderopacity="1.0"
     inkscape:pageopacity="0.0"
     inkscape:pageshadow="2"
     inkscape:zoom="1.1880859"
     inkscape:cx="318.06255"
     inkscape:cy="826.16899"
     inkscape:document-units="px"
     inkscape:current-layer="layer1"
     showgrid="false"
     showguides="true"
     inkscape:guide-bbox="true"
     inkscape:window-width="1920"
     inkscape:window-height="1018"
     inkscape:window-x="-8"
     inkscape:window-y="-8"
     inkscape:window-maximized="1">
    <sodipodi:guide
       position="-390.54414,801.28885"
       orientation="0,1"
       id="guide4187" />
  </sodipodi:namedview>
  <metadata
     id="metadata7">
    <rdf:RDF>
      <cc:Work
         rdf:about="">
        <dc:format>image/svg+xml</dc:format>
        <dc:type
           rdf:resource="http://purl.org/dc/dcmitype/StillImage" />
        <dc:title></dc:title>
      </cc:Work>
    </rdf:RDF>
  </metadata>
  <g
     inkscape:label="Capa 1"
     inkscape:groupmode="layer"
     id="layer1">
    <rect
       style="opacity:1;fill:#ffffff;fill-opacity:1;fill-rule:evenodd;stroke:none;stroke-width:7.19999981;stroke-linecap:square;stroke-linejoin:round;stroke-miterlimit:4;stroke-dasharray:none;stroke-dashoffset:0;stroke-opacity:1"
       id="rect4189"
       width="710.62659"
       height="511.84161"
       x="36.900211"
       y="20.346659"
       ry="0.042701535"
       inkscape:export-xdpi="300"
       inkscape:export-ydpi="300" />
    <path
       style="fill:#d40000;fill-rule:evenodd;stroke:none;stroke-width:1px;stroke-linecap:butt;stroke-linejoin:miter;stroke-opacity:1"
       d="M 274.19872,38.391313 743.68154,253.62218 268.24708,459.7679 Z"
       id="path4153"
       inkscape:connector-curvature="0"
       sodipodi:nodetypes="cccc"
       inkscape:export-xdpi="300"
       inkscape:export-ydpi="300" />
    <path
       sodipodi:type="star"
       style="opacity:1;fill:#ffffff;fill-opacity:1;fill-rule:evenodd;stroke:#ffffff;stroke-width:1.52620959;stroke-linecap:square;stroke-linejoin:round;stroke-miterlimit:4;stroke-dasharray:none;stroke-dashoffset:0;stroke-opacity:1"
       id="path4155"
       sodipodi:sides="5"
       sodipodi:cx="423.90811"
       sodipodi:cy="251.26844"
       sodipodi:r1="77.209412"
       sodipodi:r2="33.608639"
       sodipodi:arg1="0.92729522"
       sodipodi:arg2="1.5556137"
       inkscape:flatsided="false"
       inkscape:rounded="0"
       inkscape:randomized="0"
       d="m 470.23376,313.03596 -45.8154,-28.16276 -44.93925,29.54076 12.62665,-52.27581 -41.98193,-33.61117 53.6191,-4.14546 18.99299,-50.3136 20.51178,49.71377 53.72024,2.51565 -40.94212,34.87026 z"
       inkscape:transform-center-x="0.36222338"
       inkscape:transform-center-y="-7.0274977"
       inkscape:export-xdpi="300"
       inkscape:export-ydpi="300" />
    <path
       style="fill:#000000;fill-rule:evenodd;stroke:#000000;stroke-width:1px;stroke-linecap:butt;stroke-linejoin:miter;stroke-opacity:1"
       d="m 347.99914,274.07652 c 11.70639,-1.57153 31.70048,7.4309 22.0211,-21.42593 l -17.85494,-55.94548 0.59516,-19.34285 c 29.67227,-7.35067 75.3515,-9.2688 79.1569,-28.27032 -27.98997,-4.87356 -57.56556,-2.41417 -86.29888,-3.57099 -2.04863,-7.34036 -1.71996,-14.68073 -8.92747,-22.02109 C 313.00394,13.579036 254.89924,42.499391 227.18071,44.938124 l -115.8766,26.283169 c -24.457683,4.28298 -55.433741,10.29709 -38.271049,64.777027 l 5.951647,30.94856 3.570988,32.73406 -5.356482,5.95164 -1.785494,16.66461 c 1.64018,18.88169 2.534625,38.03455 10.117799,54.75515 l 12.498458,5.95165 c -23.018861,-4.61118 -29.15243,26.08324 -35.114715,57.13581 l 130.341068,96.41668 42.85185,2.97582 15.47429,34.51955 121.41359,48.20834 -16.06945,-48.8035 c 6.7452,1.39824 13.4904,3.9631 20.2356,-5.35649 0.63764,-2.82127 6.01176,-2.60339 1.19033,-8.92747 2.48363,-0.0835 6.50344,1.17718 2.97582,-4.16615 2.30194,0.359 4.21914,-0.43622 4.16616,-7.14197 7.13148,-1.04416 5.15899,-4.36432 2.97582,-7.73714 4.8981,-3.60931 4.1952,-8.89892 1.19033,-14.87912 2.54722,-3.24565 4.9735,-6.51145 -1.78549,-11.30813 1.33417,-4.88912 6.97067,-8.1235 -1.19033,-16.66461 0.70995,-3.1228 1.19233,-6.27901 -2.97583,-10.1178 2.81308,-2.06273 0.4994,-3.48462 -2.97582,-4.76132 0.91176,-11.25075 -5.0717,-7.33204 -7.73714,-10.71296 2.76571,-3.62933 -0.226,-6.68293 -5.35648,-9.52264 3.69011,-6.20959 -3.59463,-6.93176 -7.14198,-9.52263 2.77107,-4.31975 -2.48207,-7.74792 -6.54681,-11.30813 -1.70545,-2.44098 -2.13603,-6.36931 -8.33231,-3.57099 l -4.76131,-2.97582 c -0.0666,-14.6618 -4.75801,-4.38237 -7.14198,-6.54681 l -2.08308,-7.14198 c 4.24035,-8.98068 11.43037,-4.14423 8.62989,-14.87912 5.53496,-1.98388 0.93269,-3.96776 0,-5.95164 11.43836,-4.90197 5.47345,-9.8687 5.65407,-15.47428 z"
       id="path4147"
       inkscape:connector-curvature="0"
       sodipodi:nodetypes="cccccccccccccccccccccccccccccccccccccccccccc"
       inkscape:export-xdpi="300"
       inkscape:export-ydpi="300" />
    <path
       style="color:#000000;font-style:normal;font-variant:normal;font-weight:normal;font-stretch:normal;font-size:medium;line-height:normal;font-family:sans-serif;text-indent:0;text-align:start;text-decoration:none;text-decoration-line:none;text-decoration-style:solid;text-decoration-color:#000000;letter-spacing:normal;word-spacing:normal;text-transform:none;direction:ltr;block-progression:tb;writing-mode:lr-tb;baseline-shift:baseline;text-anchor:start;white-space:normal;clip-rule:nonzero;display:inline;overflow:visible;visibility:visible;opacity:1;isolation:auto;mix-blend-mode:normal;color-interpolation:sRGB;color-interpolation-filters:linearRGB;solid-color:#000000;solid-opacity:1;fill:#ffffff;fill-opacity:1;fill-rule:evenodd;stroke:none;stroke-width:2;stroke-linecap:butt;stroke-linejoin:miter;stroke-miterlimit:4;stroke-dasharray:none;stroke-dashoffset:0;stroke-opacity:1;color-rendering:auto;image-rendering:auto;shape-rendering:auto;text-rendering:auto;enable-background:accumulate"
       d="m 286.90481,450.22543 c 23.1324,27.00019 45.44922,53.63086 45.44922,53.63086 l 1.5332,-1.28321 c 0,0 -22.32123,-26.63744 -45.46289,-53.64843 C 236.50244,392.4295 148.4876,291.58398 95.109779,282.19131 168.68008,326.57265 234.98719,389.65317 286.90481,450.22543 Z"
       id="path4149"
       inkscape:connector-curvature="0"
       sodipodi:nodetypes="cccccc"
       inkscape:export-xdpi="300"
       inkscape:export-ydpi="300" />
    <path
       style="color:#000000;font-style:normal;font-variant:normal;font-weight:normal;font-stretch:normal;font-size:medium;line-height:normal;font-family:sans-serif;text-indent:0;text-align:start;text-decoration:none;text-decoration-line:none;text-decoration-style:solid;text-decoration-color:#000000;letter-spacing:normal;word-spacing:normal;text-transform:none;direction:ltr;block-progression:tb;writing-mode:lr-tb;baseline-shift:baseline;text-anchor:start;white-space:normal;clip-rule:nonzero;display:inline;overflow:visible;visibility:visible;opacity:1;isolation:auto;mix-blend-mode:normal;color-interpolation:sRGB;color-interpolation-filters:linearRGB;solid-color:#000000;solid-opacity:1;fill:#ffffff;fill-opacity:1;fill-rule:evenodd;stroke:none;stroke-width:2;stroke-linecap:butt;stroke-linejoin:miter;stroke-miterlimit:4;stroke-dasharray:none;stroke-dashoffset:0;stroke-opacity:1;color-rendering:auto;image-rendering:auto;shape-rendering:auto;text-rendering:auto;enable-background:accumulate"
       d="M 232.97512,162.25858 C 202.9752,171.1426 117.6682,191.40085 82.467881,199.61703 L 232.19778,164.47342 c 0.47465,0.55543 1.51532,1.67026 4.05274,3.32032 3.31656,2.15672 8.80735,4.89331 17.59375,7.33398 17.57279,4.88133 46.43891,7.06784 99.48705,2.59749 l -6.05979,0.48027 c -52.89117,4.45712 -75.64777,-0.2154 -92.89211,-5.00549 -8.62217,-2.39505 -13.91845,-5.05401 -17.03711,-7.08204 -3.11865,-2.02802 -3.98633,-3.3164 -3.98633,-3.3164 z"
       id="path4151"
       inkscape:connector-curvature="0"
       sodipodi:nodetypes="cccssccsscc"
       inkscape:export-xdpi="300"
       inkscape:export-ydpi="300" />
    <text
       xml:space="preserve"
       style="font-style:normal;font-weight:normal;font-size:29.88323212px;line-height:105.99999428%;font-family:Sans;text-align:center;letter-spacing:0px;word-spacing:0px;text-anchor:middle;fill:#000000;fill-opacity:1;stroke:none;stroke-width:1px;stroke-linecap:butt;stroke-linejoin:miter;stroke-opacity:1"
       x="100.10388"
       y="431.45251"
       id="text4161"
       sodipodi:linespacing="105.99999%"
       inkscape:export-xdpi="300"
       inkscape:export-ydpi="300"><tspan
         sodipodi:role="line"
         id="tspan4163"
         x="100.10388"
         y="431.45251"
         style="line-height:105.99999428%">1926</tspan><tspan
         sodipodi:role="line"
         x="100.10388"
         y="463.12875"
         id="tspan4165"
         style="line-height:105.99999428%">2016</tspan></text>
    <path
       style="fill:none;fill-rule:evenodd;stroke:#000000;stroke-width:1px;stroke-linecap:butt;stroke-linejoin:miter;stroke-opacity:1"
       d="m 54.709847,435.40346 93.427583,-0.84169"
       id="path4167"
       inkscape:connector-curvature="0"
       inkscape:export-xdpi="300"
       inkscape:export-ydpi="300" />
    <path
       sodipodi:nodetypes="ccccccc"
       inkscape:connector-curvature="0"
       id="path4179"
       d="m 411.27446,416.832 -4.87475,-11.50501 -8.8336,34.30897 20.13703,-8.61697 -3.42396,-7.92972 -5.82273,2.46918 8.46549,18.68193"
       style="fill:none;fill-rule:evenodd;stroke:#000000;stroke-width:0.93280005;stroke-linecap:butt;stroke-linejoin:miter;stroke-miterlimit:4;stroke-dasharray:none;stroke-opacity:1"
       inkscape:export-xdpi="300"
       inkscape:export-ydpi="300" />
    <path
       sodipodi:nodetypes="ccccc"
       inkscape:connector-curvature="0"
       id="path4181"
       d="m 409.14326,404.25309 12.01891,25.02916 12.76919,-5.44758 -8.64774,-26.55679 z"
       style="fill:none;fill-rule:evenodd;stroke:#000000;stroke-width:0.93280005;stroke-linecap:butt;stroke-linejoin:miter;stroke-miterlimit:4;stroke-dasharray:none;stroke-opacity:1"
       inkscape:export-xdpi="300"
       inkscape:export-ydpi="300" />
    <path
       sodipodi:nodetypes="cccc"
       inkscape:connector-curvature="0"
       id="path4183"
       d="m 441.4108,390.64726 -13.67562,5.68904 7.94542,26.87505 16.37081,-7.58757"
       style="fill:none;fill-rule:evenodd;stroke:#000000;stroke-width:0.93280005;stroke-linecap:butt;stroke-linejoin:miter;stroke-miterlimit:4;stroke-dasharray:none;stroke-opacity:1"
       inkscape:export-xdpi="300"
       inkscape:export-ydpi="300" />
    <path
       inkscape:connector-curvature="0"
       id="path4185"
       d="m 431.21843,408.13321 14.31431,-6.14774"
       style="fill:none;fill-rule:evenodd;stroke:#000000;stroke-width:0.93280005;stroke-linecap:butt;stroke-linejoin:miter;stroke-miterlimit:4;stroke-dasharray:none;stroke-opacity:1"
       inkscape:export-xdpi="300"
       inkscape:export-ydpi="300" />
    <path
       inkscape:export-ydpi="300"
       inkscape:export-xdpi="300"
       style="fill:none;fill-rule:evenodd;stroke:#000000;stroke-width:2.47911525;stroke-linecap:butt;stroke-linejoin:miter;stroke-miterlimit:4;stroke-dasharray:none;stroke-opacity:1"
       d="m 368.57629,847.09315 0.4127,-33.20592 -58.11555,74.0822 58.21026,0.51605 0.12845,-22.95526 -16.80784,-0.20391 0.66813,54.50684"
       id="path4201"
       inkscape:connector-curvature="0"
       sodipodi:nodetypes="ccccccc" />
    <path
       inkscape:export-ydpi="300"
       inkscape:export-xdpi="300"
       style="fill:none;fill-rule:evenodd;stroke:#000000;stroke-width:2.47911525;stroke-linecap:butt;stroke-linejoin:miter;stroke-miterlimit:4;stroke-dasharray:none;stroke-opacity:1"
       d="m 376.81297,814.20123 2.54358,73.74838 36.8943,0.36757 7.29223,-73.86904 z"
       id="path4203"
       inkscape:connector-curvature="0"
       sodipodi:nodetypes="ccccc" />
    <path
       inkscape:export-ydpi="300"
       inkscape:export-xdpi="300"
       style="fill:none;fill-rule:evenodd;stroke:#000000;stroke-width:2.47911525;stroke-linecap:butt;stroke-linejoin:miter;stroke-miterlimit:4;stroke-dasharray:none;stroke-opacity:1"
       d="m 469.87343,815.51974 -39.35829,-0.74717 -9.34136,73.8942 47.94456,-0.99765"
       id="path4205"
       inkscape:connector-curvature="0"
       sodipodi:nodetypes="cccc" />
    <path
       inkscape:export-ydpi="300"
       inkscape:export-xdpi="300"
       style="fill:none;fill-rule:evenodd;stroke:#000000;stroke-width:2.47911525;stroke-linecap:butt;stroke-linejoin:miter;stroke-miterlimit:4;stroke-dasharray:none;stroke-opacity:1"
       d="m 426.40395,847.204 41.40238,0.31227"
       id="path4207"
       inkscape:connector-curvature="0" />
  </g>
</svg>
